<?xml version="1.0" encoding="utf-8"?>
<!-- Generator: Adobe Adobe Illustrator 24.2.0, SVG Export Plug-In . SVG Version: 6.00 Build 0)  -->
<svg version="1.1" id="Layer_1" xmlns="http://www.w3.org/2000/svg" xmlns:xlink="http://www.w3.org/1999/xlink" x="0px" y="0px"
	 width="50px" height="50px" viewBox="0 0 50 50" style="enable-background:new 0 0 50 50;" xml:space="preserve">
<style type="text/css">
	.st0{fill:none;stroke:#000000;stroke-width:2;stroke-miterlimit:10;}
	.st1{fill:none;stroke:#000000;stroke-width:3;stroke-miterlimit:10;}
</style>
<path class="st0" d="M32.66,13.73c0,3.82-3.4,6.92-7.59,6.92s-7.59-3.1-7.59-6.92s7.59-8.85,7.59-8.85S32.66,9.9,32.66,13.73z"/>
<line class="st0" x1="25.07" y1="24.65" x2="25.07" y2="12.05"/>
<path class="st0" d="M25.02,17.86c1.34-1.12,2.33-1.88,3.58-3.08"/>
<path class="st0" d="M25.02,17.86c-1.21-1.02-2.43-2.04-3.64-3.07"/>
<path class="st1" d="M11.61,25.47h26.77c1.84,0,3.2,1.67,2.79,3.43l-1.53,6.63c-1.31,5.64-6.43,9.64-12.33,9.6l-4.69-0.03
	c-5.76-0.04-10.77-3.92-12.13-9.42l-1.67-6.74C8.39,27.17,9.76,25.47,11.61,25.47z"/>
</svg>
