<?xml version="1.0" encoding="utf-8"?>
<!-- Generator: Adobe Adobe Illustrator 24.2.0, SVG Export Plug-In . SVG Version: 6.00 Build 0)  -->
<svg version="1.1" id="Layer_1" xmlns="http://www.w3.org/2000/svg" xmlns:xlink="http://www.w3.org/1999/xlink" x="0px" y="0px"
	 width="50px" height="50px" viewBox="0 0 50 50" style="enable-background:new 0 0 50 50;" xml:space="preserve">
<style type="text/css">
	.st0{fill:none;stroke:#000000;stroke-width:3;stroke-miterlimit:10;}
</style>
<path class="st0" d="M3.62,44.35c1.89-3.13,3.95-6.61,7.03-8.24c3.63-1.91,7.9-1.2,11.86-0.46c2.06,0.38,4.12,0.77,6.2,1.04
	c1.35,0.18,2.71,0.31,4.06,0.11c3.22-0.47,6.01-2.75,8.12-5.47c2.11-2.71,3.67-5.87,5.49-8.83"/>
<path class="st0" d="M25,44.57l3.15-9.91c0.5-1.58,1.98-2.65,3.64-2.62l2.3,0.04c1.65,0.03,3.09,1.14,3.54,2.73l2.78,9.79"/>
</svg>
